ffmpeg version 7.1.1-full_build-www.gyan.dev Copyright (c) 2000-2025 the FFmpeg developers
  built with gcc 14.2.0 (Rev1, Built by MSYS2 project)
  configuration: --enable-gpl --enable-version3 --enable-static --disable-w32threads --disable-autodetect --enable-fontconfig --enable-iconv --enable-gnutls --enable-lcms2 --enable-libxml2 --enable-gmp --enable-bzlib --enable-lzma --enable-libsnappy --enable-zlib --enable-librist --enable-libsrt --enable-libssh --enable-libzmq --enable-avisynth --enable-libbluray --enable-libcaca --enable-libdvdnav --enable-libdvdread --enable-sdl2 --enable-libaribb24 --enable-libaribcaption --enable-libdav1d --enable-libdavs2 --enable-libopenjpeg --enable-libquirc --enable-libuavs3d --enable-libxevd --enable-libzvbi --enable-libqrencode --enable-librav1e --enable-libsvtav1 --enable-libvvenc --enable-libwebp --enable-libx264 --enable-libx265 --enable-libxavs2 --enable-libxeve --enable-libxvid --enable-libaom --enable-libjxl --enable-libvpx --enable-mediafoundation --enable-libass --enable-frei0r --enable-libfreetype --enable-libfribidi --enable-libharfbuzz --enable-liblensfun --enable-libvidstab --enable-libvmaf --enable-libzimg --enable-amf --enable-cuda-llvm --enable-cuvid --enable-dxva2 --enable-d3d11va --enable-d3d12va --enable-ffnvcodec --enable-libvpl --enable-nvdec --enable-nvenc --enable-vaapi --enable-libshaderc --enable-vulkan --enable-libplacebo --enable-opencl --enable-libcdio --enable-libgme --enable-libmodplug --enable-libopenmpt --enable-libopencore-amrwb --enable-libmp3lame --enable-libshine --enable-libtheora --enable-libtwolame --enable-libvo-amrwbenc --enable-libcodec2 --enable-libilbc --enable-libgsm --enable-liblc3 --enable-libopencore-amrnb --enable-libopus --enable-libspeex --enable-libvorbis --enable-ladspa --enable-libbs2b --enable-libflite --enable-libmysofa --enable-librubberband --enable-libsoxr --enable-chromaprint
  libavutil      59. 39.100 / 59. 39.100
  libavcodec     61. 19.101 / 61. 19.101
  libavformat    61.  7.100 / 61.  7.100
  libavdevice    61.  3.100 / 61.  3.100
  libavfilter    10.  4.100 / 10.  4.100
  libswscale      8.  3.100 /  8.  3.100
  libswresample   5.  3.100 /  5.  3.100
  libpostproc    58.  3.100 / 58.  3.100
Input #0, mov,mp4,m4a,3gp,3g2,mj2, from 'D:\Codes_Works\Projects\Project9_animation\runtime\media\sample.mp4':
  Metadata:
    major_brand     : isom
    minor_version   : 512
    compatible_brands: isomiso2avc1mp41
    encoder         : Lavf61.7.100
  Duration: 00:00:20.00, start: 0.000000, bitrate: 191 kb/s
  Stream #0:0[0x1](und): Video: h264 (High) (avc1 / 0x31637661), yuv420p(progressive), 1280x720 [SAR 1:1 DAR 16:9], 112 kb/s, 30 fps, 30 tbr, 15360 tbn (default)
      Metadata:
        handler_name    : VideoHandler
        vendor_id       : [0][0][0][0]
        encoder         : Lavc61.19.101 libx264
  Stream #0:1[0x2](und): Audio: aac (LC) (mp4a / 0x6134706D), 44100 Hz, mono, fltp, 69 kb/s (default)
      Metadata:
        handler_name    : SoundHandler
        vendor_id       : [0][0][0][0]
Stream mapping:
  Stream #0:0 -> #0:0 (h264 (native) -> h264 (libx264))
  Stream #0:1 -> #0:1 (aac (native) -> aac (native))
Press [q] to stop, [?] for help
[libx264 @ 0000022855aae600] using SAR=1/1
[libx264 @ 0000022855aae600] using cpu capabilities: MMX2 SSE2Fast SSSE3 SSE4.2 AVX FMA3 BMI2 AVX2 AVX512
[libx264 @ 0000022855aae600] profile High, level 3.1, 4:2:0, 8-bit
[libx264 @ 0000022855aae600] 264 - core 164 r3204 373697b - H.264/MPEG-4 AVC codec - Copyleft 2003-2025 - http://www.videolan.org/x264.html - options: cabac=1 ref=1 deblock=1:0:0 analyse=0x3:0x113 me=hex subme=2 psy=1 psy_rd=1.00:0.00 mixed_ref=0 me_range=16 chroma_me=1 trellis=0 8x8dct=1 cqm=0 deadzone=21,11 fast_pskip=1 chroma_qp_offset=0 threads=22 lookahead_threads=5 sliced_threads=0 nr=0 decimate=1 interlaced=0 bluray_compat=0 constrained_intra=0 bframes=3 b_pyramid=2 b_adapt=1 b_bias=0 direct=1 weightb=1 open_gop=0 weightp=1 keyint=48 keyint_min=25 scenecut=0 intra_refresh=0 rc_lookahead=10 rc=crf mbtree=1 crf=23.0 qcomp=0.60 qpmin=0 qpmax=69 qpstep=4 ip_ratio=1.40 aq=1:1.00
Output #0, hls, to 'D:\Codes_Works\Projects\Project9_animation\runtime\streams\sess-1772714294358-unknown-sour\attempt_0\index.m3u8':
  Metadata:
    major_brand     : isom
    minor_version   : 512
    compatible_brands: isomiso2avc1mp41
    encoder         : Lavf61.7.100
  Stream #0:0(und): Video: h264, yuv420p(tv, progressive), 1280x720 [SAR 1:1 DAR 16:9], q=2-31, 30 fps, 90k tbn (default)
      Metadata:
        handler_name    : VideoHandler
        vendor_id       : [0][0][0][0]
        encoder         : Lavc61.19.101 libx264
      Side data:
        cpb: bitrate max/min/avg: 0/0/0 buffer size: 0 vbv_delay: N/A
  Stream #0:1(und): Audio: aac (LC), 44100 Hz, mono, fltp, 128 kb/s (default)
      Metadata:
        handler_name    : SoundHandler
        vendor_id       : [0][0][0][0]
        encoder         : Lavc61.19.101 aac
[hls @ 000002285581c380] Opening 'D:\Codes_Works\Projects\Project9_animation\runtime\streams\sess-1772714294358-unknown-sour\attempt_0\segment_00000.ts' for writing
frame=  167 fps=0.0 q=29.0 size=N/A time=00:00:05.50 bitrate=N/A speed=10.7x    [hls @ 000002285581c380] Opening 'D:\Codes_Works\Projects\Project9_animation\runtime\streams\sess-1772714294358-unknown-sour\attempt_0\segment_00001.ts' for writing
[hls @ 000002285581c380] Opening 'D:\Codes_Works\Projects\Project9_animation\runtime\streams\sess-1772714294358-unknown-sour\attempt_0\segment_00002.ts' for writing
[hls @ 000002285581c380] Opening 'D:\Codes_Works\Projects\Project9_animation\runtime\streams\sess-1772714294358-unknown-sour\attempt_0\segment_00003.ts' for writing
frame=  528 fps=515 q=29.0 size=N/A time=00:00:17.53 bitrate=N/A speed=17.1x    [hls @ 000002285581c380] Opening 'D:\Codes_Works\Projects\Project9_animation\runtime\streams\sess-1772714294358-unknown-sour\attempt_0\segment_00004.ts' for writing
[out#0/hls @ 000002285581e9c0] video:361KiB audio:202KiB subtitle:0KiB other streams:0KiB global headers:0KiB muxing overhead: unknown
frame=  600 fps=554 q=-1.0 Lsize=N/A time=00:00:19.93 bitrate=N/A speed=18.4x    
[libx264 @ 0000022855aae600] frame I:13    Avg QP: 9.98  size:  8339
[libx264 @ 0000022855aae600] frame P:151   Avg QP:14.38  size:  1034
[libx264 @ 0000022855aae600] frame B:436   Avg QP:16.41  size:   240
[libx264 @ 0000022855aae600] consecutive B-frames:  2.3%  0.0%  7.0% 90.7%
[libx264 @ 0000022855aae600] mb I  I16..4: 88.7%  7.0%  4.3%
[libx264 @ 0000022855aae600] mb P  I16..4:  3.6%  1.4%  0.1%  P16..4:  3.2%  0.7%  0.0%  0.0%  0.0%    skip:90.9%
[libx264 @ 0000022855aae600] mb B  I16..4:  0.5%  0.1%  0.0%  B16..8:  1.3%  0.1%  0.0%  direct: 0.5%  skip:97.5%  L0:52.2% L1:47.4% BI: 0.3%
[libx264 @ 0000022855aae600] 8x8 transform intra:15.7% inter:38.7%
[libx264 @ 0000022855aae600] coded y,uvDC,uvAC intra: 4.6% 29.1% 12.3% inter: 0.0% 1.3% 0.1%
[libx264 @ 0000022855aae600] i16 v,h,dc,p: 82% 13%  2%  3%
[libx264 @ 0000022855aae600] i8 v,h,dc,ddl,ddr,vr,hd,vl,hu: 78%  7% 13%  0%  0%  0%  0%  0%  1%
[libx264 @ 0000022855aae600] i4 v,h,dc,ddl,ddr,vr,hd,vl,hu: 34% 31% 25%  3%  1%  3%  0%  3%  0%
[libx264 @ 0000022855aae600] i8c dc,h,v,p: 42% 15% 34%  9%
[libx264 @ 0000022855aae600] Weighted P-Frames: Y:0.0% UV:0.0%
[libx264 @ 0000022855aae600] kb/s:147.68
[aac @ 00000228558ac400] Qavg: 64152.570
